<?xml version="1.0" encoding="UTF-8" standalone="no"?>
<!-- Created with Inkscape (http://www.inkscape.org/) -->

<svg
   width="1065.108mm"
   height="130mm"
   viewBox="0 0 1065.108 130"
   version="1.1"
   id="svg5"
   inkscape:version="1.2.2 (b0a84865, 2022-12-01)"
   sodipodi:docname="logo.svg"
   xmlns:inkscape="http://www.inkscape.org/namespaces/inkscape"
   xmlns:sodipodi="http://sodipodi.sourceforge.net/DTD/sodipodi-0.dtd"
   xmlns="http://www.w3.org/2000/svg"
   xmlns:svg="http://www.w3.org/2000/svg">
  <sodipodi:namedview
     id="namedview7"
     pagecolor="#ffffff"
     bordercolor="#000000"
     borderopacity="0.25"
     inkscape:showpageshadow="2"
     inkscape:pageopacity="0.0"
     inkscape:pagecheckerboard="0"
     inkscape:deskcolor="#d1d1d1"
     inkscape:document-units="mm"
     showgrid="false"
     inkscape:zoom="0.32"
     inkscape:cx="2209.375"
     inkscape:cy="954.6875"
     inkscape:window-width="2560"
     inkscape:window-height="1547"
     inkscape:window-x="0"
     inkscape:window-y="25"
     inkscape:window-maximized="0"
     inkscape:current-layer="layer2" />
  <defs
     id="defs2" />
  <g
     inkscape:groupmode="layer"
     id="layer2"
     inkscape:label="guides"
     transform="matrix(1,0,0,1.0832725,-62.137173,-56.272024)"
     style="display:none">
    <rect
       style="fill:#00ff02;fill-opacity:1;stroke:none;stroke-width:24.5336;stroke-linecap:round;stroke-linejoin:round;stroke-opacity:1;stop-color:#000000"
       id="rect2195"
       width="1065.108"
       height="120.00674"
       x="62.137173"
       y="51.946323" />
    <rect
       style="fill:#fbff00;fill-opacity:1;stroke:none;stroke-width:7.39412;stroke-linecap:round;stroke-linejoin:round;stroke-opacity:1;stop-color:#000000"
       id="rect2253"
       width="30"
       height="119.99999"
       x="132.13718"
       y="51.946323" />
    <rect
       style="fill:#fbff00;fill-opacity:1;stroke:none;stroke-width:7.39412;stroke-linecap:round;stroke-linejoin:round;stroke-opacity:1;stop-color:#000000"
       id="rect5013"
       width="30"
       height="119.99999"
       x="232.13718"
       y="51.946323" />
    <rect
       style="fill:#fbff00;fill-opacity:1;stroke:none;stroke-width:7.39412;stroke-linecap:round;stroke-linejoin:round;stroke-opacity:1;stop-color:#000000"
       id="rect5046"
       width="30"
       height="119.99999"
       x="437.13718"
       y="51.946323" />
    <rect
       style="fill:#fbff00;fill-opacity:1;stroke:none;stroke-width:7.39412;stroke-linecap:round;stroke-linejoin:round;stroke-opacity:1;stop-color:#000000"
       id="rect5071"
       width="30"
       height="119.99999"
       x="582.13715"
       y="51.946323" />
    <rect
       style="fill:#fbff00;fill-opacity:1;stroke:none;stroke-width:7.39412;stroke-linecap:round;stroke-linejoin:round;stroke-opacity:1;stop-color:#000000"
       id="rect5190"
       width="30"
       height="119.99999"
       x="582.13715"
       y="51.946323" />
    <rect
       style="fill:#fbff00;fill-opacity:1;stroke:none;stroke-width:7.39412;stroke-linecap:round;stroke-linejoin:round;stroke-opacity:1;stop-color:#000000"
       id="rect5192"
       width="30"
       height="119.99999"
       x="722.44128"
       y="51.946323" />
    <rect
       style="fill:#fbff00;fill-opacity:1;stroke:none;stroke-width:7.39412;stroke-linecap:round;stroke-linejoin:round;stroke-opacity:1;stop-color:#000000"
       id="rect5194"
       width="30"
       height="119.99999"
       x="927.62115"
       y="51.946323" />
    <rect
       style="fill:#fbff00;fill-opacity:1;stroke:none;stroke-width:7.39412;stroke-linecap:round;stroke-linejoin:round;stroke-opacity:1;stop-color:#000000"
       id="rect5196"
       width="30"
       height="119.99999"
       x="1026.9656"
       y="51.946323" />
  </g>
  <g
     inkscape:label="Layer 1"
     inkscape:groupmode="layer"
     id="layer1"
     transform="translate(-27.140829,-46.948997)">
    <path
       style="fill:none;stroke:#000000;stroke-width:10;stroke-linecap:round;stroke-linejoin:round;stroke-opacity:1;stop-color:#000000"
       id="path234"
       sodipodi:type="arc"
       sodipodi:cx="-62.140827"
       sodipodi:cy="141.95816"
       sodipodi:rx="30"
       sodipodi:ry="30"
       sodipodi:start="0"
       sodipodi:end="4.712389"
       sodipodi:arc-type="arc"
       d="m -32.140827,141.95816 a 30,30 0 0 1 -18.519497,27.71639 30,30 0 0 1 -32.693707,-6.50319 30,30 0 0 1 -6.503182,-32.6937 30,30 0 0 1 27.716386,-18.5195"
       sodipodi:open="true"
       transform="scale(-1,1)" />
    <path
       style="fill:none;stroke:#000000;stroke-width:10;stroke-linecap:round;stroke-linejoin:round;stroke-opacity:1;stop-color:#000000"
       id="path1415"
       sodipodi:type="arc"
       sodipodi:cx="62.137169"
       sodipodi:cy="-81.945343"
       sodipodi:rx="30"
       sodipodi:ry="30"
       sodipodi:start="0"
       sodipodi:end="4.712389"
       sodipodi:arc-type="arc"
       d="M 92.137169,-81.945343 A 30,30 0 0 1 73.617672,-54.228957 30,30 0 0 1 40.923965,-60.73214 30,30 0 0 1 34.420783,-93.425846 30,30 0 0 1 62.137169,-111.94534"
       sodipodi:open="true"
       transform="scale(1,-1)" />
    <path
       style="fill:none;fill-opacity:1;stroke:#000000;stroke-width:9.60796;stroke-linecap:round;stroke-linejoin:round;stroke-dasharray:none;stroke-opacity:1;stop-color:#000000"
       d="m 377.13717,144.2592 h 55"
       id="path5044"
       sodipodi:nodetypes="cc"
       inkscape:label="path5044"
       transform="matrix(1,0,0,1.0832725,-34.996344,-9.3230272)" />
    <path
       style="fill:none;fill-opacity:1;stroke:#000000;stroke-width:9.60796;stroke-linecap:round;stroke-linejoin:round;stroke-dasharray:none;stroke-opacity:1;stop-color:#000000"
       d="m 267.13717,111.94969 c 0,0 -7.20232,-54.341664 30,-55.387722 37.20232,-1.046057 30,87.697232 30,87.697232 h 20 c 0,0 -6.24174,-90.145868 30,-87.697232 36.24174,2.448637 30,110.775452 30,110.775452"
       id="path5028"
       sodipodi:nodetypes="czcczc"
       transform="matrix(1,0,0,1.0832725,-34.996344,-9.3230272)" />
    <path
       style="fill:none;fill-opacity:1;stroke:#000000;stroke-width:9.60796;stroke-linecap:round;stroke-linejoin:round;stroke-dasharray:none;stroke-opacity:1;stop-color:#000000"
       d="m 167.13717,167.33742 h 60"
       id="path5011"
       sodipodi:nodetypes="cc"
       transform="matrix(1,0,0,1.0832725,-34.996344,-9.3230272)" />
    <path
       style="fill:none;fill-opacity:1;stroke:#000000;stroke-width:9.60796;stroke-linecap:round;stroke-linejoin:round;stroke-dasharray:none;stroke-opacity:1;stop-color:#000000"
       d="m 197.13717,84.25583 v 81.60765"
       id="path5009"
       transform="matrix(1,0,0,1.0832725,-34.996344,-9.3230272)" />
    <path
       style="fill:none;fill-opacity:1;stroke:#000000;stroke-width:9.60796;stroke-linecap:round;stroke-linejoin:round;stroke-dasharray:none;stroke-opacity:1;stop-color:#000000"
       d="m 167.041,56.750312 30.09617,27.505519 30,-27.693863"
       id="path2621"
       sodipodi:nodetypes="ccc"
       transform="matrix(1,0,0,1.0832725,-34.996344,-9.3230272)" />
    <path
       style="fill:none;fill-opacity:1;stroke:#000000;stroke-width:10;stroke-linecap:round;stroke-linejoin:round;stroke-dasharray:none;stroke-opacity:1;stop-color:#000000"
       d="m 437.14083,111.949 c 0,0 -1.26722,-60.000002 20,-60.000002 21.26722,0 72.39062,120.000002 30,120.000002 -42.39062,0 7.25038,-120.000002 30,-120.000002 22.74962,0 20,60.000002 20,60.000002"
       id="path5069"
       sodipodi:nodetypes="czzzc" />
  </g>
  <g
     inkscape:label="Layer 1"
     inkscape:groupmode="layer"
     id="g5188"
     transform="rotate(180,546.12446,88.452541)">
    <path
       style="fill:none;stroke:#000000;stroke-width:10;stroke-linecap:round;stroke-linejoin:round;stroke-opacity:1;stop-color:#000000"
       id="path5172"
       sodipodi:type="arc"
       sodipodi:cx="-62.140827"
       sodipodi:cy="141.95816"
       sodipodi:rx="30"
       sodipodi:ry="30"
       sodipodi:start="0"
       sodipodi:end="4.712389"
       sodipodi:arc-type="arc"
       d="m -32.140827,141.95816 a 30,30 0 0 1 -18.519497,27.71639 30,30 0 0 1 -32.693707,-6.50319 30,30 0 0 1 -6.503182,-32.6937 30,30 0 0 1 27.716386,-18.5195"
       sodipodi:open="true"
       transform="scale(-1,1)" />
    <path
       style="fill:none;stroke:#000000;stroke-width:10;stroke-linecap:round;stroke-linejoin:round;stroke-opacity:1;stop-color:#000000"
       id="path5174"
       sodipodi:type="arc"
       sodipodi:cx="62.137169"
       sodipodi:cy="-81.945343"
       sodipodi:rx="30"
       sodipodi:ry="30"
       sodipodi:start="0"
       sodipodi:end="4.712389"
       sodipodi:arc-type="arc"
       d="M 92.137169,-81.945343 A 30,30 0 0 1 73.617672,-54.228957 30,30 0 0 1 40.923965,-60.73214 30,30 0 0 1 34.420783,-93.425846 30,30 0 0 1 62.137169,-111.94534"
       sodipodi:open="true"
       transform="scale(1,-1)" />
    <path
       style="fill:none;fill-opacity:1;stroke:#000000;stroke-width:9.60796;stroke-linecap:round;stroke-linejoin:round;stroke-dasharray:none;stroke-opacity:1;stop-color:#000000"
       d="m 377.13717,144.2592 h 55"
       id="path5176"
       sodipodi:nodetypes="cc"
       inkscape:label="path5044"
       transform="matrix(1,0,0,1.0832725,-34.996344,-9.3230272)" />
    <path
       style="fill:none;fill-opacity:1;stroke:#000000;stroke-width:9.60796;stroke-linecap:round;stroke-linejoin:round;stroke-dasharray:none;stroke-opacity:1;stop-color:#000000"
       d="m 267.13717,111.94969 c 0,0 -7.20232,-54.341664 30,-55.387722 37.20232,-1.046057 30,87.697232 30,87.697232 h 20 c 0,0 -6.24174,-90.145868 30,-87.697232 36.24174,2.448637 30,110.775452 30,110.775452"
       id="path5178"
       sodipodi:nodetypes="czcczc"
       transform="matrix(1,0,0,1.0832725,-34.996344,-9.3230272)" />
    <path
       style="fill:none;fill-opacity:1;stroke:#000000;stroke-width:9.60796;stroke-linecap:round;stroke-linejoin:round;stroke-dasharray:none;stroke-opacity:1;stop-color:#000000"
       d="m 167.13717,167.33742 h 60"
       id="path5180"
       sodipodi:nodetypes="cc"
       transform="matrix(1,0,0,1.0832725,-34.996344,-9.3230272)" />
    <path
       style="fill:none;fill-opacity:1;stroke:#000000;stroke-width:9.60796;stroke-linecap:round;stroke-linejoin:round;stroke-dasharray:none;stroke-opacity:1;stop-color:#000000"
       d="m 197.13717,84.25583 v 81.60765"
       id="path5182"
       transform="matrix(1,0,0,1.0832725,-34.996344,-9.3230272)" />
    <path
       style="fill:none;fill-opacity:1;stroke:#000000;stroke-width:9.60796;stroke-linecap:round;stroke-linejoin:round;stroke-dasharray:none;stroke-opacity:1;stop-color:#000000"
       d="m 167.041,56.750312 30.09617,27.505519 30,-27.693863"
       id="path5184"
       sodipodi:nodetypes="ccc"
       transform="matrix(1,0,0,1.0832725,-34.996344,-9.3230272)" />
    <path
       style="fill:none;fill-opacity:1;stroke:#000000;stroke-width:10;stroke-linecap:round;stroke-linejoin:round;stroke-dasharray:none;stroke-opacity:1;stop-color:#000000"
       d="m 437.14083,111.949 c 0,0 -1.26722,-60.000002 20,-60.000002 21.26722,0 72.39062,120.000002 30,120.000002 -42.39062,0 7.25038,-120.000002 30,-120.000002 22.74962,0 20,60.000002 20,60.000002"
       id="path5186"
       sodipodi:nodetypes="czzzc" />
  </g>
</svg>
